# xmcd
#
# Track frame offsets:
# 150
# 16616
# 32566
# 47517
# 63154
# 77471
# 96737
# 114896
# 136161
# 157378
# 174147
# 190815
#
# Disc length: 2724 seconds
#
#
# Revision: 0
# Processed by: cddbd v1.5.2PL0 Copyright (c) Steve Scherf et al.
# Submitted via: FreeRIP 2.951 
#
DISCID=890aa20c
DTITLE=Katie Melua - Piece By Piece
DYEAR=2005
DGENRE=Blues
TTITLE0=Shy Boy
TTITLE1=Nine Million Bicycles
TTITLE2=Piece  By Piece
TTITLE3=Half Way Up The Hindu Kush
TTITLE4=Blues In The Night
TTITLE5=Spider's Web
TTITLE6=Blues Shoes
TTITLE7=On The Road Again
TTITLE8=Thankyou, Stars
TTITLE9=Jast Like Heaven
TTITLE10=I Cried For You
TTITLE11=I Do Believe In Love
EXTD=
EXTT0=
EXTT1=
EXTT2=
EXTT3=
EXTT4=
EXTT5=
EXTT6=
EXTT7=
EXTT8=
EXTT9=
EXTT10=
EXTT11=
PLAYORDER=
